<svg width="32" height="32" viewBox="0 0 32 32" fill="none" xmlns="http://www.w3.org/2000/svg">
<path d="M16 6.75556V0L1.02839 14.6389C0.462301 15.1924 0.457194 16.1016 1.01702 16.6615L3.55555 19.2" fill="#06B6D4"/>
<path d="M16 6.75556V0L30.9716 14.6389C31.5377 15.1924 31.5428 16.1016 30.983 16.6615L28.4444 19.2" fill="#0891B2"/>
<path d="M3.55556 19.2L9.6 13.1556H16V19.2" fill="#0E7490"/>
<path d="M28.4444 19.2L22.4 13.1556H16V19.2" fill="#155E75"/>
<path d="M16 25.9556H9.95555L12.9778 22.7556L16 25.9556Z" fill="#0E7490"/>
<path d="M16 32L22.0444 25.9556L16 25.9556V32Z" fill="#0891B2"/>
<path d="M16 32L9.95555 25.9556H16V32Z" fill="#06B6D4"/>
<path d="M16 25.9556H22.0444L19.0222 22.7556L16 25.9556Z" fill="#155E75"/>
<path d="M7.72363 21.7502C7.18605 22.3085 7.19441 23.1944 7.74243 23.7424L9.95556 25.9556L16 19.5556V13.1556" fill="#06B6D4"/>
<path d="M24.2764 21.7502C24.814 22.3085 24.8056 23.1944 24.2576 23.7424L22.0445 25.9556L16 19.5556V13.1556" fill="#0891B2"/>
</svg>
